<mxfile host="65bd71144e">
    <diagram id="jLiJ8Z4qNn_JoKKMsvhI" name="Arquitetura em Camadas">
        <mxGraphModel dx="966" dy="792" grid="1" gridSize="10" guides="1" tooltips="1" connect="1" arrows="1" fold="1" page="1" pageScale="1" pageWidth="850" pageHeight="1100" math="0" shadow="0">
            <root>
                <mxCell id="0"/>
                <mxCell id="1" parent="0"/>
                <mxCell id="2" value="Ecommerce-node-api (Back-and)" style="verticalAlign=top;align=left;spacingTop=8;spacingLeft=2;spacingRight=12;shape=cube;size=10;direction=south;fontStyle=4;html=1;strokeWidth=2;" parent="1" vertex="1">
                    <mxGeometry x="130" y="380" width="580" height="410" as="geometry"/>
                </mxCell>
                <mxCell id="4" value="Ecommerce-web-api (Front-and)" style="verticalAlign=top;align=left;spacingTop=8;spacingLeft=2;spacingRight=12;shape=cube;size=10;direction=south;fontStyle=4;html=1;strokeWidth=2;" parent="1" vertex="1">
                    <mxGeometry x="190" y="200" width="452" height="140" as="geometry"/>
                </mxCell>
                <mxCell id="5" value="Database (Relacionall)" style="shape=cylinder3;whiteSpace=wrap;html=1;boundedLbl=1;backgroundOutline=1;size=15;strokeWidth=2;" parent="1" vertex="1">
                    <mxGeometry x="280" y="810" width="272" height="120" as="geometry"/>
                </mxCell>
                <mxCell id="19" style="edgeStyle=none;html=1;fontColor=#000000;entryX=0.445;entryY=-0.015;entryDx=0;entryDy=0;entryPerimeter=0;" parent="1" source="6" target="9" edge="1">
                    <mxGeometry relative="1" as="geometry">
                        <mxPoint x="500" y="570" as="targetPoint"/>
                    </mxGeometry>
                </mxCell>
                <mxCell id="6" value="" style="rounded=1;whiteSpace=wrap;html=1;strokeWidth=2;fillColor=#F0DB1D;" parent="1" vertex="1">
                    <mxGeometry x="235" y="450" width="435" height="80" as="geometry"/>
                </mxCell>
                <mxCell id="9" value="" style="rounded=1;whiteSpace=wrap;html=1;strokeWidth=2;fillColor=#CF304A;" parent="1" vertex="1">
                    <mxGeometry x="350" y="565" width="320" height="80" as="geometry"/>
                </mxCell>
                <mxCell id="8" value="&lt;font color=&quot;#000000&quot;&gt;&lt;b&gt;Camada de Dominio&lt;/b&gt;&lt;/font&gt;" style="text;html=1;align=center;verticalAlign=middle;whiteSpace=wrap;rounded=0;strokeWidth=2;" parent="1" vertex="1">
                    <mxGeometry x="357" y="580" width="137" height="30" as="geometry"/>
                </mxCell>
                <mxCell id="10" value="&lt;font color=&quot;#000000&quot;&gt;&lt;b&gt;Camada de Aplicação&lt;/b&gt;&lt;/font&gt;" style="text;html=1;align=center;verticalAlign=middle;whiteSpace=wrap;rounded=0;strokeWidth=2;" parent="1" vertex="1">
                    <mxGeometry x="243" y="450" width="137" height="30" as="geometry"/>
                </mxCell>
                <mxCell id="21" style="edgeStyle=none;html=1;fontColor=#000000;" parent="1" source="11" target="9" edge="1">
                    <mxGeometry relative="1" as="geometry"/>
                </mxCell>
                <mxCell id="27" style="edgeStyle=none;html=1;fontColor=#000000;exitX=0.25;exitY=0;exitDx=0;exitDy=0;entryX=0.176;entryY=0.984;entryDx=0;entryDy=0;entryPerimeter=0;" parent="1" source="13" target="6" edge="1">
                    <mxGeometry relative="1" as="geometry"/>
                </mxCell>
                <mxCell id="11" value="" style="rounded=1;whiteSpace=wrap;html=1;strokeWidth=2;fillColor=#1DCF35;" parent="1" vertex="1">
                    <mxGeometry x="262" y="680" width="408" height="80" as="geometry"/>
                </mxCell>
                <mxCell id="13" value="&lt;font color=&quot;#000000&quot;&gt;&lt;b&gt;Camada de Infraestrutura&lt;/b&gt;&lt;/font&gt;" style="text;html=1;align=center;verticalAlign=middle;whiteSpace=wrap;rounded=0;strokeWidth=2;" parent="1" vertex="1">
                    <mxGeometry x="262" y="680" width="160" height="30" as="geometry"/>
                </mxCell>
                <mxCell id="14" value="" style="rounded=1;whiteSpace=wrap;html=1;strokeWidth=2;fillColor=#F01AB0;" parent="1" vertex="1">
                    <mxGeometry x="235" y="240" width="380" height="80" as="geometry"/>
                </mxCell>
                <mxCell id="17" value="&lt;font color=&quot;#000000&quot;&gt;&lt;b&gt;Camada de Apresentação&lt;/b&gt;&lt;/font&gt;" style="text;html=1;align=center;verticalAlign=middle;whiteSpace=wrap;rounded=0;strokeWidth=2;" parent="1" vertex="1">
                    <mxGeometry x="440" y="240" width="168.5" height="30" as="geometry"/>
                </mxCell>
                <mxCell id="30" value="" style="edgeStyle=none;html=1;fontColor=#000000;exitX=0.568;exitY=-0.028;exitDx=0;exitDy=0;exitPerimeter=0;" parent="1" source="6" target="14" edge="1">
                    <mxGeometry relative="1" as="geometry"/>
                </mxCell>
                <mxCell id="28" value="Módulo/Subdominio" style="shape=umlFrame;whiteSpace=wrap;html=1;strokeWidth=4;fontColor=#000000;fillColor=#F01AB0;strokeColor=#0000CC;dashed=1;width=120;height=40;" parent="1" vertex="1">
                    <mxGeometry x="510" y="410" width="132" height="350" as="geometry"/>
                </mxCell>
                <mxCell id="32" value="types" style="text;html=1;strokeColor=none;fillColor=none;align=center;verticalAlign=middle;whiteSpace=wrap;rounded=0;dashed=1;strokeWidth=4;fontColor=#000000;" parent="1" vertex="1">
                    <mxGeometry x="510" y="605" width="60" height="30" as="geometry"/>
                </mxCell>
                <mxCell id="38" value="spec" style="text;html=1;strokeColor=none;fillColor=none;align=center;verticalAlign=middle;whiteSpace=wrap;rounded=0;dashed=1;strokeWidth=4;fontColor=#000000;" parent="1" vertex="1">
                    <mxGeometry x="570" y="605" width="60" height="30" as="geometry"/>
                </mxCell>
                <mxCell id="39" value="exception" style="text;html=1;strokeColor=none;fillColor=none;align=center;verticalAlign=middle;whiteSpace=wrap;rounded=0;dashed=1;strokeWidth=4;fontColor=#000000;" parent="1" vertex="1">
                    <mxGeometry x="570" y="575" width="60" height="30" as="geometry"/>
                </mxCell>
                <mxCell id="40" value="entity" style="text;html=1;strokeColor=none;fillColor=none;align=center;verticalAlign=middle;whiteSpace=wrap;rounded=0;dashed=1;strokeWidth=4;fontColor=#000000;" parent="1" vertex="1">
                    <mxGeometry x="510" y="575" width="60" height="30" as="geometry"/>
                </mxCell>
                <mxCell id="41" value="map" style="text;html=1;strokeColor=none;fillColor=none;align=center;verticalAlign=middle;whiteSpace=wrap;rounded=0;dashed=1;strokeWidth=4;fontColor=#000000;" parent="1" vertex="1">
                    <mxGeometry x="510" y="680" width="60" height="30" as="geometry"/>
                </mxCell>
                <mxCell id="42" value="" style="rounded=0;whiteSpace=wrap;html=1;dashed=1;strokeColor=#0000CC;strokeWidth=2;fontColor=#000000;fillColor=none;" parent="1" vertex="1">
                    <mxGeometry x="515" y="580" width="50" height="20" as="geometry"/>
                </mxCell>
                <mxCell id="43" value="" style="rounded=0;whiteSpace=wrap;html=1;dashed=1;strokeColor=#0000CC;strokeWidth=2;fontColor=#000000;fillColor=none;" parent="1" vertex="1">
                    <mxGeometry x="515" y="610" width="50" height="20" as="geometry"/>
                </mxCell>
                <mxCell id="44" value="" style="rounded=0;whiteSpace=wrap;html=1;dashed=1;strokeColor=#0000CC;strokeWidth=2;fontColor=#000000;fillColor=none;" parent="1" vertex="1">
                    <mxGeometry x="575" y="610" width="50" height="20" as="geometry"/>
                </mxCell>
                <mxCell id="45" value="" style="rounded=0;whiteSpace=wrap;html=1;dashed=1;strokeColor=#0000CC;strokeWidth=2;fontColor=#000000;fillColor=none;" parent="1" vertex="1">
                    <mxGeometry x="515" y="685" width="50" height="20" as="geometry"/>
                </mxCell>
                <mxCell id="46" value="" style="rounded=0;whiteSpace=wrap;html=1;dashed=1;strokeColor=#0000CC;strokeWidth=2;fontColor=#000000;fillColor=none;" parent="1" vertex="1">
                    <mxGeometry x="570" y="580" width="60" height="20" as="geometry"/>
                </mxCell>
            </root>
        </mxGraphModel>
    </diagram>
</mxfile>